<?xml version="1.0" ?>
<mxfile host="app.diagrams.net" agent="Mozilla/5.0 (Windows NT 10.0; Win64; x64) AppleWebKit/537.36 (KHTML, like Gecko) Chrome/128.0.0.0 Safari/537.36 OPR/114.0.0.0" version="26.0.14">
    <diagram name="Page-1" id="E5nG0SyLeEiv9CRzUDmB">
        <mxGraphModel dx="2033" dy="1123" grid="1" gridSize="10" guides="1" tooltips="1" connect="1" arrows="1" fold="1" page="1" pageScale="1" pageWidth="900" pageHeight="1200" math="0" shadow="0">
            <root>
                <mxCell id="0"/>
                <mxCell id="1" parent="0"/>
                <mxCell id="2" value="szamitogépek szama

pt ee,
" style="rhombus;whiteSpace=wrap;html=1;" vertex="1" parent="1">
                    <mxGeometry x="5" y="450" width="324" height="57" as="geometry"/>
                </mxCell>
                <mxCell id="3" value="7am
" style="ellipse;whiteSpace=wrap;html=1;" vertex="1" parent="1">
                    <mxGeometry x="53" y="466" width="57" height="21" as="geometry"/>
                </mxCell>
                <mxCell id="4" value="Mosd6
" style="rounded=0;whiteSpace=wrap;html=1" vertex="1" parent="1">
                    <mxGeometry x="489" y="347" width="118" height="57" as="geometry"/>
                </mxCell>
                <mxCell id="5" value="" style="ellipse;whiteSpace=wrap;html=1;" vertex="1" parent="1">
                    <mxGeometry x="512" y="364" width="43" height="20" as="geometry"/>
                </mxCell>
                <mxCell id="6" value="Szamitogépes terem
" style="rounded=0;whiteSpace=wrap;html=1" vertex="1" parent="1">
                    <mxGeometry x="59" y="347" width="305" height="57" as="geometry"/>
                </mxCell>
                <mxCell id="7" value="" style="ellipse;whiteSpace=wrap;html=1;" vertex="1" parent="1">
                    <mxGeometry x="84" y="363" width="42" height="20" as="geometry"/>
                </mxCell>
                <mxCell id="8" value="" style="triangle;whiteSpace=wrap;html=1;" vertex="1" parent="1">
                    <mxGeometry x="475" y="203" width="141" height="89" as="geometry"/>
                </mxCell>
                <mxCell id="9" value="" style="triangle;whiteSpace=wrap;html=1;" vertex="1" parent="1">
                    <mxGeometry x="140" y="203" width="141" height="89" as="geometry"/>
                </mxCell>
                <mxCell id="10" value="._ alapte rulet _
" style="ellipse;whiteSpace=wrap;html=1;" vertex="1" parent="1">
                    <mxGeometry x="539" y="83" width="226" height="56" as="geometry"/>
                </mxCell>
                <mxCell id="11" value="Helyiség
" style="rounded=0;whiteSpace=wrap;html=1" vertex="1" parent="1">
                    <mxGeometry x="298" y="35" width="161" height="57" as="geometry"/>
                </mxCell>
                <mxCell id="12" value="" style="ellipse;whiteSpace=wrap;html=1;" vertex="1" parent="1">
                    <mxGeometry x="522" y="3" width="183" height="57" as="geometry"/>
                </mxCell>
                <mxCell id="29" value="" style="endArrow=none;html=1;rounded=0;" edge="1" parent="1" source="11" target="8">
                    <mxGeometry width="50" height="50" relative="1" as="geometry">
                        <mxPoint x="413" y="93" as="sourcePoint"/>
                        <mxPoint x="550" y="203" as="targetPoint"/>
                    </mxGeometry>
                </mxCell>
                <mxCell id="39" value="" style="endArrow=none;html=1;rounded=0;" edge="1" parent="1" source="9" target="11">
                    <mxGeometry width="50" height="50" relative="1" as="geometry">
                        <mxPoint x="202" y="201" as="sourcePoint"/>
                        <mxPoint x="345" y="93" as="targetPoint"/>
                    </mxGeometry>
                </mxCell>
                <mxCell id="49" value="" style="endArrow=none;html=1;rounded=0;" edge="1" parent="1" source="11" target="12">
                    <mxGeometry width="50" height="50" relative="1" as="geometry">
                        <mxPoint x="460" y="53" as="sourcePoint"/>
                        <mxPoint x="521" y="43" as="targetPoint"/>
                    </mxGeometry>
                </mxCell>
                <mxCell id="52" value="" style="endArrow=none;html=1;rounded=0;" edge="1" parent="1" source="11" target="10">
                    <mxGeometry width="50" height="50" relative="1" as="geometry">
                        <mxPoint x="460" y="76" as="sourcePoint"/>
                        <mxPoint x="539" y="91" as="targetPoint"/>
                    </mxGeometry>
                </mxCell>
                <mxCell id="85" value="" style="endArrow=none;html=1;rounded=0;" edge="1" parent="1" source="4" target="8">
                    <mxGeometry width="50" height="50" relative="1" as="geometry">
                        <mxPoint x="546" y="345" as="sourcePoint"/>
                        <mxPoint x="548" y="294" as="targetPoint"/>
                    </mxGeometry>
                </mxCell>
                <mxCell id="90" value="" style="endArrow=none;html=1;rounded=0;" edge="1" parent="1" source="9" target="6">
                    <mxGeometry width="50" height="50" relative="1" as="geometry">
                        <mxPoint x="207" y="293" as="sourcePoint"/>
                        <mxPoint x="213" y="335" as="targetPoint"/>
                    </mxGeometry>
                </mxCell>
                <mxCell id="108" value="" style="endArrow=none;html=1;rounded=0;" edge="1" parent="1" source="2" target="6">
                    <mxGeometry width="50" height="50" relative="1" as="geometry">
                        <mxPoint x="187" y="436" as="sourcePoint"/>
                        <mxPoint x="193" y="408" as="targetPoint"/>
                    </mxGeometry>
                </mxCell>
            </root>
        </mxGraphModel>
    </diagram>
</mxfile>
